<svg width="66" height="66" viewBox="0 0 66 66" fill="none" xmlns="http://www.w3.org/2000/svg">
<rect width="66" height="66" rx="33" fill="#BFBFBF"/>
<path d="M40.7347 38.6133C40.3136 37.616 39.7026 36.71 38.9356 35.9459C38.1709 35.1797 37.2651 34.5687 36.2682 34.1468C36.2593 34.1424 36.2503 34.1401 36.2414 34.1357C37.632 33.1312 38.5361 31.495 38.5361 29.6491C38.5361 26.591 36.0584 24.1133 33.0003 24.1133C29.9423 24.1133 27.4646 26.591 27.4646 29.6491C27.4646 31.495 28.3686 33.1312 29.7593 34.1379C29.7503 34.1424 29.7414 34.1446 29.7325 34.1491C28.7325 34.5709 27.8352 35.1758 27.0651 35.9482C26.2988 36.7128 25.6878 37.6186 25.266 38.6156C24.8515 39.5916 24.628 40.638 24.6075 41.6982C24.6069 41.722 24.6111 41.7457 24.6198 41.7679C24.6285 41.7901 24.6415 41.8103 24.6582 41.8273C24.6748 41.8444 24.6947 41.8579 24.7167 41.8672C24.7386 41.8764 24.7622 41.8812 24.786 41.8812H26.1253C26.2235 41.8812 26.3017 41.8031 26.3039 41.7071C26.3485 39.9839 27.0405 38.37 28.2637 37.1468C29.5294 35.8812 31.2102 35.1848 33.0003 35.1848C34.7905 35.1848 36.4713 35.8812 37.7369 37.1468C38.9602 38.37 39.6521 39.9839 39.6968 41.7071C39.699 41.8053 39.7771 41.8812 39.8753 41.8812H41.2146C41.2385 41.8812 41.262 41.8764 41.284 41.8672C41.306 41.8579 41.3259 41.8444 41.3425 41.8273C41.3591 41.8103 41.3722 41.7901 41.3809 41.7679C41.3896 41.7457 41.3938 41.722 41.3932 41.6982C41.3709 40.6312 41.1499 39.5933 40.7347 38.6133ZM33.0003 33.4883C31.9758 33.4883 31.0115 33.0888 30.286 32.3633C29.5606 31.6379 29.161 30.6736 29.161 29.6491C29.161 28.6245 29.5606 27.6602 30.286 26.9348C31.0115 26.2093 31.9758 25.8098 33.0003 25.8098C34.0249 25.8098 34.9892 26.2093 35.7146 26.9348C36.4401 27.6602 36.8396 28.6245 36.8396 29.6491C36.8396 30.6736 36.4401 31.6379 35.7146 32.3633C34.9892 33.0888 34.0249 33.4883 33.0003 33.4883Z" fill="white"/>
</svg>
