<svg width="25" height="24" viewBox="0 0 25 24" fill="none" xmlns="http://www.w3.org/2000/svg">
<path d="M8.5 12L8.5 8C8.5 5.79086 10.2909 4 12.5 4V4C14.7091 4 16.5 5.79086 16.5 8L16.5 12" stroke="#33363F" stroke-width="1.5" stroke-linecap="round"/>
<path d="M4.19435 12.6678C4.33942 10.9269 4.41196 10.0565 4.98605 9.52824C5.56013 9 6.4336 9 8.18053 9H16.8195C18.5664 9 19.4399 9 20.014 9.52824C20.588 10.0565 20.6606 10.9269 20.8057 12.6678L21.3195 18.8339C21.404 19.8474 21.4462 20.3542 21.1491 20.6771C20.852 21 20.3435 21 19.3264 21H5.6736C4.65655 21 4.14802 21 3.85092 20.6771C3.55382 20.3542 3.59605 19.8474 3.68051 18.8339L4.19435 12.6678Z" stroke="#33363F" stroke-width="1.5"/>
</svg>
