<svg width="24" height="24" viewBox="0 0 24 24" fill="none" xmlns="http://www.w3.org/2000/svg">
<path d="M7 8H10M9.75 4H14.25C17.432 4 19.023 4 20.0115 5.00421C21 6.00841 21 7.62466 21 10.8571V13.1429C21 16.3753 21 17.9916 20.0115 18.9958C19.023 20 17.432 20 14.25 20H9.75C6.56802 20 4.97703 20 3.98851 18.9958C3 17.9916 3 16.3753 3 13.1429V10.8571C3 7.62465 3 6.00841 3.98851 5.00421C4.97703 4 6.56802 4 9.75 4ZM17 16H19C19.9428 16 20.4142 16 20.7071 15.7071C21 15.4142 21 14.9428 21 14C21 13.0572 21 12.5858 20.7071 12.2929C20.4142 12 19.9428 12 19 12H17C16.0572 12 15.5858 12 15.2929 12.2929C15 12.5858 15 13.0572 15 14C15 14.9428 15 15.4142 15.2929 15.7071C15.5858 16 16.0572 16 17 16Z" stroke="#1E1E1E" stroke-width="2" stroke-linecap="round"/>
</svg>
