<svg width="39" height="39" viewBox="0 0 39 39" fill="none" xmlns="http://www.w3.org/2000/svg">
<rect opacity="0.1" width="39" height="39" rx="19.5" fill="currentColor"/>
<g clip-path="url(#clip0_207_7627)">
<path fill-rule="evenodd" clip-rule="evenodd" d="M26.227 9.56941C26.195 9.44045 26.1293 9.32231 26.0367 9.22707C25.9441 9.13182 25.8278 9.0629 25.6998 9.02735C25.5717 8.9918 25.4366 8.99089 25.3081 9.02472C25.1796 9.05856 25.0624 9.12592 24.9685 9.21991L21.9685 12.2199C21.877 12.3116 21.8108 12.4254 21.7764 12.5503C21.742 12.6751 21.7404 12.8068 21.772 12.9324L22.312 15.0984C22.3049 15.1053 22.2979 15.1123 22.291 15.1194L18.7045 18.7059C18.5058 18.9192 18.3976 19.2012 18.4027 19.4927C18.4079 19.7841 18.526 20.0622 18.7321 20.2683C18.9382 20.4745 19.2163 20.5925 19.5077 20.5977C19.7992 20.6028 20.0812 20.4946 20.2945 20.2959L23.884 16.7109C23.8911 16.7035 23.8981 16.696 23.905 16.6884L26.0695 17.2299C26.1951 17.2615 26.3268 17.26 26.4516 17.2255C26.5765 17.1911 26.6903 17.1249 26.782 17.0334L29.782 14.0334C29.8764 13.9395 29.9441 13.8222 29.9782 13.6936C30.0122 13.5649 30.0114 13.4294 29.9758 13.3012C29.9403 13.1729 29.8712 13.0564 29.7757 12.9637C29.6802 12.8709 29.5618 12.8052 29.4325 12.7734L26.869 12.1344L26.227 9.56941ZM19.975 10.1394C19.9956 10.437 19.8972 10.7305 19.7014 10.9555C19.5057 11.1806 19.2286 11.3186 18.931 11.3394C17.3638 11.448 15.8607 12.0043 14.6004 12.942C13.34 13.8798 12.3753 15.1597 11.821 16.6296C11.2667 18.0995 11.146 19.6977 11.4733 21.2342C11.8006 22.7707 12.5621 24.1809 13.6673 25.2973C14.7726 26.4137 16.1751 27.1894 17.7082 27.5321C19.2413 27.8749 20.8406 27.7703 22.316 27.2308C23.7914 26.6913 25.081 25.7396 26.0314 24.4887C26.9818 23.2378 27.5531 21.7404 27.6775 20.1744C27.7012 19.8768 27.8421 19.6009 28.0692 19.4072C28.2964 19.2135 28.5912 19.118 28.8888 19.1417C29.1863 19.1653 29.4623 19.3062 29.656 19.5334C29.8497 19.7605 29.9452 20.0553 29.9215 20.3529C29.7628 22.3482 29.0346 24.2561 27.8235 25.8497C26.6124 27.4434 24.9692 28.6559 23.0893 29.3431C21.2094 30.0304 19.1716 30.1636 17.2182 29.7269C15.2648 29.2901 13.4779 28.3018 12.0696 26.8794C10.6614 25.4569 9.69105 23.6601 9.27395 21.7024C8.85685 19.7447 9.01048 17.7084 9.71661 15.8355C10.4227 13.9626 11.6517 12.3317 13.2574 11.1366C14.8631 9.94159 16.7782 9.2326 18.775 9.09391C19.0726 9.0733 19.3661 9.1717 19.5911 9.36747C19.8162 9.56324 19.9542 9.84186 19.975 10.1394ZM18.967 15.0879C19.0209 15.2255 19.0472 15.3724 19.0443 15.5201C19.0414 15.6678 19.0095 15.8136 18.9503 15.949C18.8911 16.0844 18.8058 16.2068 18.6993 16.3092C18.5928 16.4116 18.4671 16.4921 18.3295 16.5459C17.8376 16.7389 17.4015 17.0514 17.0606 17.4552C16.7198 17.859 16.485 18.3414 16.3774 18.8588C16.2698 19.3761 16.2928 19.9121 16.4443 20.4184C16.5959 20.9246 16.8712 21.3851 17.2454 21.7582C17.6196 22.1313 18.0809 22.4053 18.5876 22.5553C19.0942 22.7054 19.6303 22.7269 20.1474 22.6178C20.6644 22.5087 21.1461 22.2724 21.5489 21.9304C21.9517 21.5884 22.263 21.1514 22.4545 20.6589C22.5081 20.5212 22.5883 20.3954 22.6905 20.2887C22.7926 20.182 22.9149 20.0965 23.0501 20.037C23.1854 19.9775 23.331 19.9453 23.4787 19.9421C23.6264 19.9389 23.7733 19.9648 23.911 20.0184C24.0487 20.072 24.1745 20.1522 24.2812 20.2544C24.3879 20.3565 24.4734 20.4788 24.5329 20.614C24.5924 20.7493 24.6246 20.8949 24.6278 21.0426C24.631 21.1903 24.6051 21.3372 24.5515 21.4749C24.2244 22.3159 23.6928 23.0622 23.0048 23.6461C22.3168 24.2301 21.4941 24.6334 20.6111 24.8196C19.7281 25.0058 18.8127 24.9689 17.9475 24.7124C17.0823 24.4559 16.2947 23.9878 15.6558 23.3505C15.017 22.7131 14.547 21.9266 14.2885 21.062C14.03 20.1974 13.991 19.2821 14.1751 18.3986C14.3592 17.5152 14.7606 16.6916 15.3429 16.0022C15.9253 15.3129 16.6703 14.7795 17.5105 14.4504C17.7882 14.342 18.0976 14.3483 18.3707 14.4678C18.6438 14.5873 18.8582 14.8104 18.967 15.0879Z" fill="currentColor"/>
</g>
<defs>
<clipPath id="clip0_207_7627">
<rect width="21" height="21" fill="currentColor" transform="translate(9 9)"/>
</clipPath>
</defs>
</svg>
