<svg width="39" height="39" viewBox="0 0 39 39" fill="none" xmlns="http://www.w3.org/2000/svg">
<rect opacity="0.1" width="39" height="39" rx="19.5" fill="currentColor"/>
<g clip-path="url(#clip0_207_7604)">
<path d="M22.0186 24.3636C22.0186 25.7576 22.0186 27.1517 22.0186 28.5458C22.0186 28.8876 21.9225 28.9837 21.5807 28.9837C20.5071 28.9837 19.4335 28.9837 18.3599 28.9837C18.0234 28.9837 17.9272 28.8876 17.9272 28.5404C17.9272 25.7363 17.9272 22.9374 17.9272 20.1333C17.9272 19.7861 18.018 19.6953 18.3652 19.6953C19.4388 19.6953 20.5124 19.6953 21.586 19.6953C21.9278 19.6953 22.0186 19.7915 22.0186 20.1386C22.0186 21.5487 22.0186 22.9588 22.0186 24.3636Z" fill="currentColor"/>
<path d="M17.6444 17.3769C17.7298 16.9123 17.7886 16.4048 17.9168 15.9188C18.0236 15.5129 17.9542 15.2298 17.623 14.9574C17.2545 14.6529 16.934 14.2897 16.5922 13.9532C16.4853 13.8464 16.4106 13.7342 16.464 13.5793C16.5174 13.4191 16.6509 13.3657 16.8058 13.3443C17.4201 13.2642 18.0343 13.1734 18.6485 13.0986C18.7607 13.0826 18.8034 13.0238 18.8515 12.9384C19.1186 12.3936 19.391 11.8541 19.658 11.3093C19.7328 11.1651 19.8183 11.0476 19.9999 11.0529C20.1708 11.0583 20.2509 11.1811 20.3204 11.3146C20.5767 11.8488 20.8385 12.3775 21.0841 12.917C21.1482 13.0559 21.239 13.1093 21.3779 13.1307C21.9708 13.2161 22.5637 13.3123 23.1566 13.4031C23.3114 13.4244 23.4236 13.4885 23.4717 13.6381C23.5198 13.793 23.445 13.9051 23.3382 14.012C22.8948 14.4339 22.4515 14.8612 22.0082 15.2832C21.9281 15.358 21.896 15.422 21.9174 15.5396C22.0242 16.1485 22.115 16.7627 22.2165 17.3769C22.2432 17.5265 22.2218 17.6547 22.0936 17.7508C21.9601 17.8416 21.8319 17.8096 21.6984 17.7401C21.1696 17.4571 20.6408 17.174 20.1174 16.8856C19.9839 16.8108 19.8877 16.8161 19.7542 16.8856C19.2201 17.1686 18.6806 17.4464 18.1411 17.7188C17.8687 17.847 17.6337 17.7028 17.6444 17.3769Z" fill="currentColor"/>
<path d="M17.2816 25.9604C17.2816 26.9058 17.2763 27.8565 17.2869 28.8019C17.2869 28.9408 17.2709 28.9942 17.1107 28.9942C16.3629 28.9836 15.6151 28.9889 14.8674 28.9889C14.5789 28.9889 14.4614 28.8821 14.4614 28.5936C14.4614 26.8257 14.4614 25.0577 14.4614 23.2898C14.4614 23.0174 14.5789 22.9052 14.8567 22.8999C15.6098 22.8999 16.3629 22.9052 17.116 22.8945C17.2602 22.8945 17.2869 22.9373 17.2869 23.0708C17.2816 24.0376 17.2816 24.999 17.2816 25.9604Z" fill="currentColor"/>
<path d="M22.6596 25.9342C22.6596 24.9888 22.665 24.0381 22.6543 23.0927C22.6543 22.9538 22.6703 22.9004 22.8306 22.9004C23.5783 22.9111 24.3261 22.9057 25.0739 22.9057C25.3623 22.9057 25.4798 23.0126 25.4798 23.301C25.4798 25.0689 25.4798 26.8369 25.4798 28.6048C25.4798 28.8772 25.3623 28.9948 25.0846 28.9948C24.3314 28.9948 23.5783 28.9894 22.8252 29.0001C22.681 29.0001 22.6543 28.9574 22.6543 28.8238C22.6596 27.8571 22.6596 26.8956 22.6596 25.9342Z" fill="currentColor"/>
<path d="M13.8144 27.3924C13.8144 27.8678 13.809 28.3378 13.8197 28.8132C13.8197 28.9467 13.7984 28.9948 13.6541 28.9948C12.901 28.9841 12.1479 28.9894 11.3948 28.9894C11.1224 28.9894 11.0049 28.8773 11.0049 28.6048C11.0049 27.793 11.0049 26.9758 11.0049 26.1639C11.0049 25.9075 11.1224 25.79 11.3841 25.79C12.1426 25.79 12.9064 25.7954 13.6648 25.7847C13.809 25.7847 13.8251 25.8381 13.8197 25.9556C13.8144 26.4363 13.8144 26.9117 13.8144 27.3924Z" fill="currentColor"/>
<path d="M26.1263 27.3812C26.1263 26.9058 26.1317 26.4358 26.121 25.9604C26.121 25.8269 26.1423 25.7788 26.2866 25.7788C27.0397 25.7895 27.7928 25.7841 28.5459 25.7841C28.8183 25.7841 28.9358 25.8963 28.9358 26.1687C28.9358 26.9806 28.9358 27.7925 28.9358 28.6097C28.9358 28.866 28.813 28.9836 28.5566 28.9836C27.7981 28.9836 27.0343 28.9782 26.2759 28.9889C26.1317 28.9889 26.1156 28.9355 26.121 28.818C26.1263 28.3426 26.1263 27.8619 26.1263 27.3812Z" fill="currentColor"/>
</g>
<defs>
<clipPath id="clip0_207_7604">
<rect width="18" height="18" fill="white" transform="translate(11 11)"/>
</clipPath>
</defs>
</svg>
