<svg width="24" height="24" viewBox="0 0 24 24" fill="none" xmlns="http://www.w3.org/2000/svg">
<path d="M4 6C4 5.05719 4 4.58579 4.29289 4.29289C4.58579 4 5.05719 4 6 4H8C8.94281 4 9.41421 4 9.70711 4.29289C10 4.58579 10 5.05719 10 6V9C10 9.94281 10 10.4142 9.70711 10.7071C9.41421 11 8.94281 11 8 11H6C5.05719 11 4.58579 11 4.29289 10.7071C4 10.4142 4 9.94281 4 9V6Z" stroke="currentColor" stroke-width="2" stroke-linejoin="round"/>
<path d="M4 17C4 16.0572 4 15.5858 4.29289 15.2929C4.58579 15 5.05719 15 6 15H8C8.94281 15 9.41421 15 9.70711 15.2929C10 15.5858 10 16.0572 10 17V18C10 18.9428 10 19.4142 9.70711 19.7071C9.41421 20 8.94281 20 8 20H6C5.05719 20 4.58579 20 4.29289 19.7071C4 19.4142 4 18.9428 4 18V17Z" stroke="currentColor" stroke-width="2" stroke-linejoin="round"/>
<path d="M14 6C14 5.05719 14 4.58579 14.2929 4.29289C14.5858 4 15.0572 4 16 4H18C18.9428 4 19.4142 4 19.7071 4.29289C20 4.58579 20 5.05719 20 6V7C20 7.94281 20 8.41421 19.7071 8.70711C19.4142 9 18.9428 9 18 9H16C15.0572 9 14.5858 9 14.2929 8.70711C14 8.41421 14 7.94281 14 7V6Z" stroke="currentColor" stroke-width="2" stroke-linejoin="round"/>
<path d="M14 15C14 14.0572 14 13.5858 14.2929 13.2929C14.5858 13 15.0572 13 16 13H18C18.9428 13 19.4142 13 19.7071 13.2929C20 13.5858 20 14.0572 20 15V18C20 18.9428 20 19.4142 19.7071 19.7071C19.4142 20 18.9428 20 18 20H16C15.0572 20 14.5858 20 14.2929 19.7071C14 19.4142 14 18.9428 14 18V15Z" stroke="currentColor" stroke-width="2" stroke-linejoin="round"/>
</svg>
