<svg width="17" height="16" viewBox="0 0 17 16" fill="none" xmlns="http://www.w3.org/2000/svg">
<path d="M8.50033 9.33337L7.97 9.8637L8.50033 10.394L9.03066 9.8637L8.50033 9.33337ZM9.25033 3.33337C9.25033 2.91916 8.91454 2.58337 8.50033 2.58337C8.08611 2.58337 7.75033 2.91916 7.75033 3.33337L9.25033 3.33337ZM5.16699 6.00004L4.63666 6.53037L7.97 9.8637L8.50033 9.33337L9.03066 8.80304L5.69732 5.46971L5.16699 6.00004ZM8.50033 9.33337L9.03066 9.8637L12.364 6.53037L11.8337 6.00004L11.3033 5.46971L7.97 8.80304L8.50033 9.33337ZM8.50033 9.33337L9.25033 9.33337L9.25033 3.33337L8.50033 3.33337L7.75033 3.33337L7.75033 9.33337L8.50033 9.33337Z" fill="currentColor"/>
<path d="M3.83301 10.6666L3.83301 11.3333C3.83301 12.0697 4.42996 12.6666 5.16634 12.6666L11.833 12.6666C12.5694 12.6666 13.1663 12.0697 13.1663 11.3333V10.6666" stroke="currentColor" stroke-width="1.5"/>
</svg>