<svg width="50" height="51" viewBox="0 0 50 51" fill="none" xmlns="http://www.w3.org/2000/svg">
<path d="M22.9167 17.166C32.1214 17.166 39.5833 14.3678 39.5833 10.916C39.5833 7.46424 32.1214 4.66602 22.9167 4.66602C13.7119 4.66602 6.25 7.46424 6.25 10.916C6.25 14.3678 13.7119 17.166 22.9167 17.166Z" stroke="#A7A7A7" stroke-width="2.4" stroke-linecap="round" stroke-linejoin="round"/>
<path d="M22.9167 31.75C13.7119 31.75 6.25 28.9519 6.25 25.5" stroke="#A7A7A7" stroke-width="2.4" stroke-linecap="round" stroke-linejoin="round"/>
<path d="M22.9167 46.3327C13.7119 46.3327 6.25 43.5346 6.25 40.0827V10.916M39.5833 10.916V22.3743" stroke="#A7A7A7" stroke-width="2.4" stroke-linecap="round" stroke-linejoin="round"/>
<path d="M12.5 23.416C13.7533 23.7927 15.1549 24.2281 16.6667 24.4577" stroke="#A7A7A7" stroke-width="2.4" stroke-linecap="round"/>
<path d="M12.5 38C13.7533 38.3767 15.1549 38.8121 16.6667 39.0417" stroke="#A7A7A7" stroke-width="2.4" stroke-linecap="round"/>
<path d="M28.5 30.5L35 37M35 37L41.5 43.5M35 37L41.5 30.5M35 37L28.5 43.5" stroke="#A7A7A7" stroke-width="2.4" stroke-linecap="round"/>
</svg>
