<svg width="24" height="24" viewBox="0 0 24 24" fill="none" xmlns="http://www.w3.org/2000/svg">
<path d="M5 11.8084C5 10.4506 5 9.77174 5.27446 9.175C5.54892 8.57826 6.06437 8.13645 7.09525 7.25284L8.09525 6.39569C9.95857 4.79856 10.8902 4 12 4C13.1098 4 14.0414 4.79856 15.9047 6.39569L16.9047 7.25284C17.9356 8.13645 18.4511 8.57826 18.7255 9.175C19 9.77174 19 10.4506 19 11.8084V16.0488C19 17.9344 19 18.8772 18.4142 19.463C17.8284 20.0488 16.8856 20.0488 15 20.0488H9C7.11438 20.0488 6.17157 20.0488 5.58579 19.463C5 18.8772 5 17.9344 5 16.0488V11.8084Z" stroke="currentColor" stroke-width="2"/>
<path d="M9 14.0488L10.2929 15.3417C10.6834 15.7322 11.3166 15.7322 11.7071 15.3417L15 12.0488" stroke="currentColor" stroke-width="2" stroke-linecap="round"/>
</svg>
