<svg width="30" height="30" viewBox="0 0 30 30" fill="none" xmlns="http://www.w3.org/2000/svg">
<path d="M12.4893 13.3604C12.1807 13.8318 12 14.3945 12 15C12 16.6569 13.3431 18 15 18C15.6054 18 16.1673 17.8182 16.6387 17.5098L18.0713 18.9424C17.2235 19.6038 16.1586 20 15 20C12.2386 20 10 17.7614 10 15C10 13.8413 10.3952 12.7756 11.0566 11.9277L12.4893 13.3604ZM15 10C17.7614 10 20 12.2386 20 15C20 15.4942 19.9265 15.971 19.793 16.4219L17.9727 14.6016C17.795 13.2632 16.736 12.2036 15.3975 12.0264L13.5771 10.2061C14.0282 10.0724 14.5056 10 15 10Z" fill="#33363F"/>
<path d="M9.59692 10.4678C9.47006 10.5565 9.34421 10.6468 9.21997 10.7393C7.50243 12.0169 6.13572 13.553 5.33423 14.5537C5.23557 14.6769 5.16057 14.7698 5.09888 14.8516C5.0482 14.9187 5.01738 14.9664 4.99634 15C5.01738 15.0336 5.0482 15.0813 5.09888 15.1484C5.16057 15.2302 5.23557 15.3231 5.33423 15.4463C6.13572 16.447 7.50243 17.9831 9.21997 19.2607C10.9475 20.5457 12.936 21.5 15.0002 21.5C16.5113 21.4999 17.9809 20.9871 19.3381 20.209L20.7961 21.667C19.1191 22.7091 17.1457 23.4999 15.0002 23.5C12.3294 23.5 9.92372 22.2764 8.02661 20.8652C6.11979 19.4468 4.63104 17.768 3.77271 16.6963C3.48139 16.3325 3.03621 15.8407 2.98169 15.1426L2.97681 15L2.98169 14.8574C3.03621 14.1593 3.48139 13.6675 3.77271 13.3037C4.63104 12.232 6.11979 10.5532 8.02661 9.13477C8.07188 9.1011 8.11749 9.06762 8.16333 9.03418L9.59692 10.4678ZM15.0002 6.5C17.6711 6.50007 20.0768 7.72363 21.9739 9.13477C23.8807 10.5532 25.3695 12.232 26.2278 13.3037C26.5386 13.6917 27.0237 14.2257 27.0237 15C27.0237 15.7743 26.5386 16.3083 26.2278 16.6963C25.5675 17.5208 24.5328 18.7034 23.2229 19.8516L21.8059 18.4346C23.0424 17.3652 24.0318 16.2385 24.6663 15.4463C24.7649 15.3231 24.8399 15.2302 24.9016 15.1484C24.9521 15.0816 24.9821 15.0336 25.0032 15C24.9821 14.9664 24.9521 14.9184 24.9016 14.8516C24.8399 14.7698 24.7649 14.6769 24.6663 14.5537C23.8648 13.553 22.4981 12.0169 20.7805 10.7393C19.053 9.45427 17.0644 8.50007 15.0002 8.5C14.1016 8.5 13.2172 8.68097 12.3625 8.99121L10.8303 7.45898C12.1103 6.8798 13.5141 6.5 15.0002 6.5Z" fill="#33363F"/>
<path d="M6.25 2.5L26.25 22.5" stroke="#33363F" stroke-width="1.5"/>
</svg>
