<svg width="19" height="19" viewBox="0 0 19 19" fill="none" xmlns="http://www.w3.org/2000/svg">
<path d="M1.21533 6.81445C0.609212 6.81445 0.306152 6.50521 0.306152 5.88672V3.63232C0.306152 2.64274 0.562826 1.89437 1.07617 1.38721C1.58952 0.880046 2.34717 0.626465 3.34912 0.626465H5.60352C6.21582 0.626465 6.52197 0.929525 6.52197 1.53564C6.52197 2.14795 6.21582 2.4541 5.60352 2.4541H3.46045C3.02751 2.4541 2.69661 2.56543 2.46777 2.78809C2.24512 3.01074 2.13379 3.34782 2.13379 3.79932V5.88672C2.13379 6.50521 1.82764 6.81445 1.21533 6.81445ZM17.7754 6.81445C17.1693 6.81445 16.8662 6.50521 16.8662 5.88672V3.79932C16.8662 3.34782 16.7487 3.01074 16.5137 2.78809C16.2848 2.56543 15.957 2.4541 15.5303 2.4541H13.3872C12.7749 2.4541 12.4688 2.14795 12.4688 1.53564C12.4688 0.929525 12.7749 0.626465 13.3872 0.626465H15.6416C16.6497 0.626465 17.4105 0.880046 17.9238 1.38721C18.4372 1.89437 18.6938 2.64274 18.6938 3.63232V5.88672C18.6938 6.50521 18.3877 6.81445 17.7754 6.81445ZM3.34912 19.0049C2.34717 19.0049 1.58952 18.7482 1.07617 18.2349C0.562826 17.7277 0.306152 16.9793 0.306152 15.9897V13.7446C0.306152 13.1261 0.609212 12.8169 1.21533 12.8169C1.82764 12.8169 2.13379 13.1261 2.13379 13.7446V15.832C2.13379 16.2835 2.24512 16.6206 2.46777 16.8433C2.69661 17.0659 3.02751 17.1772 3.46045 17.1772H5.60352C6.21582 17.1772 6.52197 17.4834 6.52197 18.0957C6.52197 18.7018 6.21582 19.0049 5.60352 19.0049H3.34912ZM13.3872 19.0049C12.7749 19.0049 12.4688 18.7018 12.4688 18.0957C12.4688 17.4834 12.7749 17.1772 13.3872 17.1772H15.5303C15.957 17.1772 16.2848 17.0659 16.5137 16.8433C16.7487 16.6206 16.8662 16.2835 16.8662 15.832V13.7446C16.8662 13.1261 17.1693 12.8169 17.7754 12.8169C18.3877 12.8169 18.6938 13.1261 18.6938 13.7446V15.9897C18.6938 16.9793 18.4372 17.7277 17.9238 18.2349C17.4105 18.7482 16.6497 19.0049 15.6416 19.0049H13.3872ZM6.00244 9.19873C5.78597 9.19873 5.60661 9.1276 5.46436 8.98535C5.3221 8.8431 5.25098 8.66064 5.25098 8.43799V7.12061C5.25098 6.90413 5.3221 6.72477 5.46436 6.58252C5.60661 6.43408 5.78597 6.35986 6.00244 6.35986C6.2251 6.35986 6.40755 6.43408 6.5498 6.58252C6.69824 6.72477 6.77246 6.90413 6.77246 7.12061V8.43799C6.77246 8.66064 6.69824 8.8431 6.5498 8.98535C6.40755 9.1276 6.2251 9.19873 6.00244 9.19873ZM8.74854 11.3696C8.51351 11.3696 8.32487 11.3109 8.18262 11.1934C8.04655 11.0758 7.97852 10.9119 7.97852 10.7017C7.97852 10.5285 8.04036 10.3831 8.16406 10.2656C8.28776 10.1419 8.4362 10.0801 8.60938 10.0801H8.89697C8.93408 10.0801 8.96501 10.0708 8.98975 10.0522C9.02067 10.0275 9.03613 9.9904 9.03613 9.94092V6.99072C9.03613 6.80518 9.09489 6.65365 9.2124 6.53613C9.32992 6.41243 9.48454 6.35059 9.67627 6.35059C9.868 6.35059 10.0226 6.41243 10.1401 6.53613C10.2576 6.65365 10.3164 6.80518 10.3164 6.99072V9.89453C10.3164 10.3708 10.1865 10.7357 9.92676 10.9893C9.67318 11.2428 9.30827 11.3696 8.83203 11.3696C8.81348 11.3696 8.79801 11.3696 8.78564 11.3696C8.77327 11.3696 8.7609 11.3696 8.74854 11.3696ZM12.9512 9.19873C12.7285 9.19873 12.5461 9.1276 12.4038 8.98535C12.2616 8.8431 12.1904 8.66064 12.1904 8.43799V7.12061C12.1904 6.90413 12.2616 6.72477 12.4038 6.58252C12.5461 6.43408 12.7285 6.35986 12.9512 6.35986C13.1676 6.35986 13.347 6.43408 13.4893 6.58252C13.6315 6.72477 13.7026 6.90413 13.7026 7.12061V8.43799C13.7026 8.66064 13.6315 8.8431 13.4893 8.98535C13.347 9.1276 13.1676 9.19873 12.9512 9.19873ZM9.44434 14.4312C8.86914 14.4312 8.30322 14.3198 7.74658 14.0972C7.19613 13.8745 6.73535 13.5498 6.36426 13.123C6.30859 13.055 6.2653 12.9839 6.23438 12.9097C6.20345 12.8293 6.18799 12.7489 6.18799 12.6685C6.18799 12.4829 6.24984 12.3314 6.37354 12.2139C6.49723 12.0902 6.64876 12.0283 6.82812 12.0283C6.93945 12.0283 7.03223 12.0531 7.10645 12.1025C7.18685 12.152 7.26416 12.2139 7.33838 12.2881C7.61051 12.554 7.93213 12.7674 8.30322 12.9282C8.67432 13.0828 9.05469 13.1602 9.44434 13.1602C9.84635 13.1602 10.2329 13.0798 10.604 12.9189C10.9813 12.7581 11.2936 12.5479 11.541 12.2881C11.708 12.1149 11.875 12.0283 12.042 12.0283C12.2275 12.0283 12.3822 12.0902 12.5059 12.2139C12.6296 12.3314 12.6914 12.4829 12.6914 12.6685C12.6914 12.7612 12.6759 12.8478 12.645 12.9282C12.6141 13.0086 12.5708 13.0798 12.5151 13.1416C12.1069 13.5498 11.6307 13.8683 11.0864 14.0972C10.5483 14.3198 10.001 14.4312 9.44434 14.4312Z" fill="#1E1E1E"/>
</svg>
