<svg width="24" height="24" viewBox="0 0 24 24" fill="none" xmlns="http://www.w3.org/2000/svg">
<path d="M21 12H20C20 16.4183 16.4183 20 12 20V21V22C17.5228 22 22 17.5228 22 12H21ZM12 21V20C7.58172 20 4 16.4183 4 12H3H2C2 17.5228 6.47715 22 12 22V21ZM3 12H4C4 7.58172 7.58172 4 12 4V3V2C6.47715 2 2 6.47715 2 12H3ZM12 3V4C16.4183 4 20 7.58172 20 12H21H22C22 6.47715 17.5228 2 12 2V3ZM12.5 7.5H11.5C11.5 7.22386 11.7239 7 12 7V8V9C12.8284 9 13.5 8.32843 13.5 7.5H12.5ZM12 8V7C12.2761 7 12.5 7.22386 12.5 7.5H11.5H10.5C10.5 8.32843 11.1716 9 12 9V8ZM11.5 7.5H12.5C12.5 7.77614 12.2761 8 12 8V7V6C11.1716 6 10.5 6.67157 10.5 7.5H11.5ZM12 7V8C11.7239 8 11.5 7.77614 11.5 7.5H12.5H13.5C13.5 6.67157 12.8284 6 12 6V7ZM12 17H13V10H12H11V17H12Z" fill="#1E1E1E"/>
</svg>
