<svg width="24" height="25" viewBox="0 0 24 25" fill="none" xmlns="http://www.w3.org/2000/svg">
<circle cx="12" cy="8.64288" r="3" stroke="currentColor" stroke-width="2" stroke-linecap="round"/>
<path d="M15.2679 8.64288C15.5332 8.18351 15.97 7.84832 16.4824 7.71103C16.9947 7.57375 17.5406 7.64562 18 7.91083C18.4594 8.17605 18.7946 8.61289 18.9319 9.12525C19.0691 9.6376 18.9973 10.1835 18.7321 10.6429C18.4668 11.1023 18.03 11.4374 17.5176 11.5747C17.0053 11.712 16.4594 11.6402 16 11.3749C15.5406 11.1097 15.2054 10.6729 15.0681 10.1605C14.9309 9.64816 15.0027 9.10225 15.2679 8.64288L15.2679 8.64288Z" stroke="currentColor" stroke-width="2"/>
<path d="M5.26795 8.64288C5.53317 8.18351 5.97 7.84832 6.48236 7.71103C6.99472 7.57375 7.54063 7.64562 8 7.91083C8.45937 8.17605 8.79457 8.61289 8.93185 9.12525C9.06914 9.6376 8.99727 10.1835 8.73205 10.6429C8.46683 11.1023 8.03 11.4374 7.51764 11.5747C7.00528 11.712 6.45937 11.6402 6 11.3749C5.54063 11.1097 5.20543 10.6729 5.06815 10.1605C4.93086 9.64816 5.00273 9.10225 5.26795 8.64288L5.26795 8.64288Z" stroke="currentColor" stroke-width="2"/>
<path d="M16.9995 14.6429V13.6429H16.9994L16.9995 14.6429ZM20.7202 17.5472L21.6627 17.2131L21.6627 17.2129L20.7202 17.5472ZM16.8813 18.6429L15.901 18.8403L16.0627 19.6429H16.8813V18.6429ZM14.7827 15.3558L14.1779 14.5594L13.0221 15.4372L14.254 16.2046L14.7827 15.3558ZM16.9995 14.6429V15.6429C18.6412 15.6429 19.4028 16.8242 19.7777 17.8815L20.7202 17.5472L21.6627 17.2129C21.1976 15.9016 19.9479 13.6429 16.9995 13.6429V14.6429ZM20.7202 17.5472L19.7777 17.8813C19.7706 17.8613 19.7641 17.8236 19.7725 17.7779C19.7804 17.7346 19.7982 17.7018 19.8151 17.6809C19.8472 17.641 19.8735 17.6429 19.8667 17.6429V18.6429V19.6429C21.0118 19.6429 22.1414 18.5633 21.6627 17.2131L20.7202 17.5472ZM19.8667 18.6429V17.6429H16.8813V18.6429V19.6429H19.8667V18.6429ZM16.8813 18.6429L17.8617 18.4454C17.6437 17.3634 17.0373 15.5821 15.3114 14.507L14.7827 15.3558L14.254 16.2046C15.292 16.8511 15.727 17.9763 15.901 18.8403L16.8813 18.6429ZM14.7827 15.3558L15.3875 16.1521C15.7741 15.8586 16.2844 15.643 16.9996 15.6429L16.9995 14.6429L16.9994 13.6429C15.8352 13.643 14.9024 14.0091 14.1779 14.5594L14.7827 15.3558Z" fill="currentColor"/>
<path d="M7.00024 14.6429L7.0003 13.6429H7.00024V14.6429ZM9.21606 15.3558L9.74498 16.2044L10.9767 15.4368L9.82068 14.5593L9.21606 15.3558ZM7.11841 18.6429V19.6429H7.93709L8.09872 18.8403L7.11841 18.6429ZM3.27954 17.5472L2.33707 17.2129L2.33699 17.2131L3.27954 17.5472ZM7.00024 14.6429L7.00019 15.6429C7.71457 15.6429 8.22449 15.8586 8.61145 16.1523L9.21606 15.3558L9.82068 14.5593C9.09668 14.0097 8.16466 13.6429 7.0003 13.6429L7.00024 14.6429ZM9.21606 15.3558L8.68715 14.5071C6.96189 15.5823 6.35592 17.3639 6.13809 18.4454L7.11841 18.6429L8.09872 18.8403C8.27276 17.9762 8.70755 16.851 9.74498 16.2044L9.21606 15.3558ZM7.11841 18.6429V17.6429H4.13306V18.6429V19.6429H7.11841V18.6429ZM4.13306 18.6429V17.6429C4.12626 17.6429 4.15264 17.641 4.1847 17.6809C4.20153 17.7018 4.2194 17.7346 4.2273 17.7778C4.23565 17.8235 4.22919 17.8612 4.22209 17.8812L3.27954 17.5472L2.33699 17.2131C1.8585 18.5632 2.98792 19.6429 4.13306 19.6429V18.6429ZM3.27954 17.5472L4.22201 17.8815C4.59701 16.8242 5.35857 15.6429 7.00024 15.6429V14.6429V13.6429C4.05182 13.6429 2.80217 15.9016 2.33707 17.2129L3.27954 17.5472Z" fill="currentColor"/>
<path d="M12 14.6429C15.5715 14.6429 16.5919 17.1941 16.8834 18.6518C16.9917 19.1933 16.5523 19.6429 16 19.6429H8C7.44772 19.6429 7.00829 19.1933 7.11659 18.6518C7.4081 17.1941 8.42846 14.6429 12 14.6429Z" stroke="currentColor" stroke-width="2" stroke-linecap="round"/>
</svg>
