<svg width="20" height="20" viewBox="0 0 20 20" fill="none" xmlns="http://www.w3.org/2000/svg">
<path d="M4 11.35C4 9.85011 4 9.10017 4.38196 8.57444C4.50532 8.40464 4.65464 8.25532 4.82444 8.13196C5.35017 7.75 6.10011 7.75 7.59999 7.75H12.4C13.8999 7.75 14.6498 7.75 15.1755 8.13196C15.3453 8.25532 15.4946 8.40464 15.618 8.57444C16 9.10017 16 9.85011 16 11.35V11.35C16 13.5998 16 14.7247 15.427 15.5133C15.242 15.768 15.018 15.992 14.7633 16.177C13.9747 16.75 12.8498 16.75 10.6 16.75H9.39998C7.15016 16.75 6.02525 16.75 5.23666 16.177C4.98196 15.992 4.75798 15.768 4.57294 15.5133C4 14.7247 4 13.5998 4 11.35V11.35Z" stroke="#33363F" stroke-width="1.5"/>
<path d="M13 6.99999V6.24999C13 4.59314 11.6568 3.25 9.99999 3.25V3.25C8.34314 3.25 7 4.59314 7 6.24999V6.99999" stroke="#33363F" stroke-width="1.5" stroke-linecap="round"/>
<ellipse cx="10" cy="12.25" rx="1.5" ry="1.5" fill="#33363F"/>
</svg>
