<svg width="24" height="24" viewBox="0 0 24 24" fill="none" xmlns="http://www.w3.org/2000/svg">
<path d="M8.5 18.0622C8.02171 17.786 7.41012 17.9499 7.13397 18.4282C6.85783 18.9065 7.02171 19.5181 7.5 19.7942L8 18.9282L8.5 18.0622ZM16 5.0718L15.5 5.93782L15.5 5.93782L16 5.0718ZM7.5 4.20577C7.02171 4.48191 6.85783 5.0935 7.13398 5.5718C7.41012 6.05009 8.02171 6.21396 8.5 5.93782L8 5.0718L7.5 4.20577ZM2 12L1.21913 11.3753L0.719375 12L1.21913 12.6247L2 12ZM11 13C11.5523 13 12 12.5523 12 12C12 11.4477 11.5523 11 11 11V12V13ZM8 18.9282L7.5 19.7942C8.86817 20.5841 10.4202 21 12 21V20V19C10.7712 19 9.56413 18.6766 8.5 18.0622L8 18.9282ZM12 20V21C13.5798 21 15.1318 20.5841 16.5 19.7942L16 18.9282L15.5 18.0622C14.4359 18.6766 13.2288 19 12 19V20ZM16 18.9282L16.5 19.7942C17.8682 19.0043 19.0043 17.8682 19.7942 16.5L18.9282 16L18.0622 15.5C17.4478 16.5641 16.5641 17.4478 15.5 18.0622L16 18.9282ZM18.9282 16L19.7942 16.5C20.5841 15.1318 21 13.5798 21 12H20H19C19 13.2288 18.6766 14.4359 18.0622 15.5L18.9282 16ZM20 12H21C21 10.4202 20.5841 8.86817 19.7942 7.5L18.9282 8L18.0622 8.5C18.6766 9.56413 19 10.7712 19 12H20ZM18.9282 8L19.7942 7.5C19.0043 6.13183 17.8682 4.99569 16.5 4.20577L16 5.0718L15.5 5.93782C16.5641 6.5522 17.4478 7.43587 18.0622 8.5L18.9282 8ZM16 5.0718L16.5 4.20577C15.1318 3.41586 13.5798 3 12 3V4V5C13.2288 5 14.4359 5.32344 15.5 5.93782L16 5.0718ZM12 4V3C10.4202 3 8.86817 3.41586 7.5 4.20577L8 5.0718L8.5 5.93782C9.56413 5.32344 10.7712 5 12 5V4ZM6 7L5.21913 6.3753L1.21913 11.3753L2 12L2.78087 12.6247L6.78087 7.6247L6 7ZM2 12L1.21913 12.6247L5.21913 17.6247L6 17L6.78087 16.3753L2.78087 11.3753L2 12ZM2 12V13H11V12V11H2V12Z" fill="#1E1E1E"/>
</svg>
