<svg width="24" height="24" viewBox="0 0 24 24" fill="none" xmlns="http://www.w3.org/2000/svg">
<path d="M16 18C16 19.1046 15.1046 20 14 20H10C8.89543 20 8 19.1046 8 18M19 14C19 15.1046 18.1046 16 17 16H7C5.89543 16 5 15.1046 5 14M6 12H18C19.8856 12 20.8284 12 21.4142 11.4142C22 10.8284 22 9.88562 22 8V7C22 5.11438 22 4.17157 21.4142 3.58579C20.8284 3 19.8856 3 18 3H6C4.11438 3 3.17157 3 2.58579 3.58579C2 4.17157 2 5.11438 2 7V8C2 9.88562 2 10.8284 2.58579 11.4142C3.17157 12 4.11438 12 6 12Z" stroke="currentColor" stroke-width="2"/>
</svg>
