<svg width="24" height="24" viewBox="0 0 24 24" fill="none" xmlns="http://www.w3.org/2000/svg">
<path d="M6.20421 14.5529C6.06127 14.0194 5.51293 13.7029 4.97946 13.8458C4.446 13.9887 4.12941 14.5371 4.27236 15.0706L5.23828 14.8117L6.20421 14.5529ZM19.7272 15.0706C19.8701 14.5371 19.5535 13.9887 19.0201 13.8458C18.4866 13.7029 17.9383 14.0194 17.7953 14.5529L18.7612 14.8117L19.7272 15.0706ZM11.9998 4L12.6245 3.21913L11.9998 2.71938L11.3751 3.21913L11.9998 4ZM10.9998 13C10.9998 13.5523 11.4475 14 11.9998 14C12.552 14 12.9998 13.5523 12.9998 13L11.9998 13L10.9998 13ZM5.23828 14.8117L4.27236 15.0706C4.72815 16.7716 5.73252 18.2748 7.12967 19.3468L7.73843 18.5535L8.34719 17.7601C7.29933 16.9561 6.54606 15.8287 6.20421 14.5529L5.23828 14.8117ZM7.73843 18.5535L7.12967 19.3468C8.52682 20.4189 10.2387 21 11.9998 21V20V19C10.679 19 9.39506 18.5642 8.34719 17.7601L7.73843 18.5535ZM11.9998 20V21C13.7608 21 15.4727 20.4189 16.8699 19.3468L16.2611 18.5535L15.6523 17.7601C14.6045 18.5642 13.3206 19 11.9998 19V20ZM16.2611 18.5535L16.8699 19.3468C18.267 18.2748 19.2714 16.7716 19.7272 15.0706L18.7612 14.8117L17.7953 14.5529C17.4535 15.8287 16.7002 16.9561 15.6523 17.7601L16.2611 18.5535ZM6.99976 8L7.62446 8.78087L12.6245 4.78087L11.9998 4L11.3751 3.21913L6.37507 7.21913L6.99976 8ZM11.9998 4L11.3751 4.78087L16.3751 8.78087L16.9998 8L17.6245 7.21913L12.6245 3.21913L11.9998 4ZM11.9998 4L10.9998 4L10.9998 13L11.9998 13L12.9998 13L12.9998 4L11.9998 4Z" fill="#1E1E1E"/>
</svg>
