<svg width="24" height="24" viewBox="0 0 24 24" fill="none" xmlns="http://www.w3.org/2000/svg">
<path d="M12.4463 4.01367C13.4819 4.07149 14.5018 4.33038 15.4463 4.78125C16.8413 5.44736 18.0138 6.50402 18.8213 7.82227C19.6287 9.14062 20.0376 10.6655 19.9971 12.2109C19.9564 13.7562 19.4691 15.2572 18.5938 16.5312C17.7182 17.8055 16.4916 18.7995 15.0635 19.3916C13.6353 19.9836 12.0652 20.1481 10.5449 19.8672C9.02491 19.5861 7.6181 18.8709 6.49609 17.8076C6.04306 17.3782 5.64512 16.8981 5.30664 16.3809L7.37793 15.8262C7.53132 16.0115 7.69626 16.1888 7.87207 16.3555C8.71364 17.153 9.76908 17.6906 10.9092 17.9014C12.0492 18.112 13.2269 17.9879 14.2979 17.5439C15.3688 17.0998 16.2887 16.354 16.9453 15.3984C17.6017 14.4429 17.9676 13.3171 17.998 12.1582C18.0284 10.9993 17.7216 9.85587 17.1162 8.86719C16.5106 7.87855 15.6312 7.08555 14.585 6.58594C14.0807 6.34519 13.5473 6.17731 13.002 6.08496L12.4463 4.01367Z" fill="#1E1E1E"/>
<path d="M9.67063 3.30705C9.54649 2.84376 9.48442 2.61212 9.28694 2.51091C9.08946 2.4097 8.87978 2.48905 8.46042 2.64777C7.54796 2.99309 6.68924 3.47075 5.91239 4.06684C4.87054 4.86628 3.99636 5.8631 3.33975 7.00038C2.68314 8.13766 2.25696 9.39313 2.08555 10.6951C1.95774 11.6659 1.97344 12.6484 2.13061 13.6113C2.20284 14.0538 2.23896 14.2751 2.42535 14.3955C2.61174 14.516 2.84338 14.4539 3.30667 14.3298L11.0341 12.2592C11.4894 12.1372 11.7171 12.0762 11.8206 11.8968C11.9242 11.7175 11.8632 11.4898 11.7412 11.0345L9.67063 3.30705Z" stroke="#1E1E1E" stroke-width="2"/>
</svg>
