<svg width="17" height="16" viewBox="0 0 17 16" fill="none" xmlns="http://www.w3.org/2000/svg">
<path d="M10.0383 3.93154L6.97587 4.95234C5.09586 5.57901 4.15585 5.89234 4.0242 6.42791C3.98565 6.58472 3.98565 6.74853 4.0242 6.90534C4.15585 7.44091 5.09586 7.75424 6.97587 8.38091C7.35079 8.50589 7.53825 8.56837 7.68353 8.68973C7.72934 8.728 7.77163 8.77029 7.8099 8.8161C7.93126 8.96138 7.99375 9.14884 8.11872 9.52377C8.74539 11.4038 9.05873 12.3438 9.59429 12.4754C9.7511 12.514 9.91492 12.514 10.0717 12.4754C10.6073 12.3438 10.9206 11.4038 11.5473 9.52377L12.5681 6.46136C13.12 4.80557 13.396 3.97767 12.959 3.54066C12.522 3.10364 11.6941 3.37961 10.0383 3.93154Z" stroke="#33363F" stroke-width="1.5"/>
</svg>
