<svg width="39" height="39" viewBox="0 0 39 39" fill="none" xmlns="http://www.w3.org/2000/svg">
<rect opacity="0.1" width="39" height="39" rx="19.5" fill="currentColor"/>
<g clip-path="url(#clip0_207_7617)">
<path d="M19.1737 14.2298C16.5212 14.2298 13.8631 14.2298 11.2106 14.2354C11.0512 14.2354 11 14.2071 11 14.0375C11.0114 12.9461 11.0057 11.8491 11.0057 10.7577C11.0057 10.2658 11.2732 10 11.7684 10C16.709 10 21.644 10 26.5846 10C27.0855 10 27.353 10.2658 27.353 10.7747C27.353 11.8604 27.3473 12.9461 27.3587 14.0318C27.3587 14.1958 27.3189 14.2354 27.1538 14.2354C24.4956 14.2298 21.8318 14.2298 19.1737 14.2298Z" fill="currentColor"/>
<path d="M11.2446 15.2539C16.5495 15.2539 21.8203 15.2539 27.1366 15.2539C26.8178 15.6497 26.5219 16.0173 26.2259 16.3905C25.0363 17.8721 23.8409 19.348 22.6513 20.8295C22.5546 20.9483 22.4635 21.0048 22.2984 21.0048C20.2152 20.9991 18.1262 20.9991 16.043 21.0048C15.9234 21.0048 15.838 20.9822 15.7527 20.8804C14.2671 19.0313 12.7758 17.1822 11.2902 15.3331C11.2788 15.3161 11.2674 15.2991 11.2446 15.2539Z" fill="currentColor"/>
<path d="M16.4586 25.2283C16.4586 24.2218 16.4642 23.2096 16.4529 22.203C16.4529 22.039 16.4984 22.0107 16.6521 22.0107C18.3426 22.0164 20.0274 22.0164 21.7179 22.0107C21.8773 22.0107 21.9171 22.0503 21.9115 22.2087C21.9058 23.3 21.9058 24.3914 21.9115 25.4884C21.9115 25.7881 21.7976 26.0143 21.5415 26.1783C20.2152 27.0548 18.889 27.9313 17.5628 28.8134C17.318 28.9774 17.0619 29.017 16.8001 28.87C16.5496 28.7286 16.4472 28.5024 16.4529 28.214C16.4586 27.2188 16.4586 26.2235 16.4586 25.2283Z" fill="currentColor"/>
</g>
<defs>
<clipPath id="clip0_207_7617">
<rect width="17" height="19" fill="currentColor" transform="translate(11 10)"/>
</clipPath>
</defs>
</svg>
