<svg width="39" height="39" viewBox="0 0 39 39" fill="none" xmlns="http://www.w3.org/2000/svg">
<rect opacity="0.1" width="39" height="39" rx="19.5" fill="currentColor"/>
<g clip-path="url(#clip0_207_7593)">
<path d="M23.1675 22.8653C23.1675 20.8631 23.1675 18.8609 23.1675 16.8644C23.1675 15.901 23.7478 15.3207 24.6996 15.3207C25.2277 15.3207 25.7559 15.3207 26.284 15.3207C27.1255 15.3265 27.7233 15.9126 27.7233 16.7542C27.7233 20.4394 27.7233 24.1189 27.7233 27.8042C27.7233 28.6457 27.1255 29.2434 26.2898 29.2434C25.3148 29.2493 24.334 29.2376 23.359 29.2493C23.1965 29.2493 23.1559 29.2086 23.1617 29.0461C23.1675 26.9859 23.1675 24.9256 23.1675 22.8653Z" fill="currentColor"/>
<path d="M16.9514 24.2353C16.9514 22.7032 16.9746 21.1768 16.9456 19.6447C16.9282 18.7219 17.6305 18.0545 18.4894 18.0951C19.0871 18.1242 19.6907 18.1009 20.2885 18.1009C21.1706 18.1009 21.7742 18.7045 21.78 19.5867C21.78 22.738 21.78 25.8951 21.7858 29.0465C21.7858 29.2206 21.7336 29.2438 21.5769 29.2438C20.1028 29.238 18.6229 29.238 17.1488 29.2438C16.9863 29.2438 16.9514 29.2032 16.9514 29.0407C16.9514 27.4389 16.9514 25.8371 16.9514 24.2353Z" fill="currentColor"/>
<path d="M15.5592 24.7181C15.5592 26.1632 15.5592 27.6025 15.565 29.0476C15.565 29.2101 15.5302 29.2507 15.3677 29.2507C14.4043 29.2391 13.4409 29.2507 12.4833 29.2449C11.6534 29.2391 11.0556 28.6414 11.0498 27.8172C11.0498 25.7512 11.0498 23.6851 11.0498 21.619C11.0498 20.7949 11.6476 20.1972 12.4717 20.1913C13.4351 20.1855 14.3985 20.1972 15.3561 20.1855C15.5186 20.1855 15.5592 20.2204 15.5592 20.3887C15.5592 21.8338 15.5592 23.273 15.5592 24.7181Z" fill="currentColor"/>
<path d="M21.4731 12.3445C20.9914 12.948 20.5039 13.5226 19.9526 14.0391C18.2638 15.6177 16.2847 16.6855 14.0852 17.3645C13.6499 17.498 13.2727 17.3007 13.1566 16.8945C13.0463 16.5056 13.2785 16.1516 13.7196 16.0181C15.687 15.4203 17.4629 14.4686 18.9718 13.0583C19.5173 12.5476 19.999 11.9788 20.3995 11.3462C20.4343 11.294 20.4865 11.2476 20.4865 11.1489C20.0629 11.1489 19.6392 11.1489 19.2155 11.1489C18.7745 11.1489 18.4669 10.8529 18.4669 10.4525C18.4669 10.0462 18.7803 9.75606 19.2213 9.76187C20.1789 9.76767 21.1307 9.77928 22.0883 9.79088C22.5468 9.79669 22.8196 10.0637 22.8254 10.5163C22.837 11.4681 22.8486 12.4141 22.8544 13.3659C22.8544 13.7779 22.5642 14.0797 22.1754 14.0855C21.7807 14.0913 21.4731 13.7837 21.4673 13.3659C21.4673 13.0177 21.4731 12.6811 21.4731 12.3445Z" fill="currentColor"/>
</g>
<defs>
<clipPath id="clip0_207_7593">
<rect width="16.7143" height="19.5" fill="white" transform="translate(11.0498 9.75)"/>
</clipPath>
</defs>
</svg>
