<svg width="30" height="30" viewBox="0 0 30 30" fill="none" xmlns="http://www.w3.org/2000/svg">
<path d="M0 15C0 6.71573 6.71573 0 15 0C23.2843 0 30 6.71573 30 15C30 23.2843 23.2843 30 15 30C6.71573 30 0 23.2843 0 15Z" fill="#EFEFEF"/>
<path d="M22.7337 20.6133C22.3127 19.616 21.7016 18.71 20.9346 17.9459C20.17 17.1797 19.2642 16.5687 18.2672 16.1468C18.2583 16.1424 18.2494 16.1401 18.2404 16.1357C19.6311 15.1312 20.5351 13.495 20.5351 11.6491C20.5351 8.59102 18.0574 6.11334 14.9994 6.11334C11.9413 6.11334 9.46364 8.59102 9.46364 11.6491C9.46364 13.495 10.3677 15.1312 11.7583 16.1379C11.7494 16.1424 11.7404 16.1446 11.7315 16.1491C10.7315 16.5709 9.83418 17.1758 9.06409 17.9482C8.29782 18.7128 7.68687 19.6186 7.26498 20.6156C6.85052 21.5916 6.627 22.638 6.6065 23.6982C6.60591 23.722 6.61008 23.7457 6.61879 23.7679C6.6275 23.7901 6.64056 23.8103 6.6572 23.8273C6.67384 23.8444 6.69373 23.8579 6.71569 23.8672C6.73765 23.8764 6.76124 23.8812 6.78507 23.8812H8.12436C8.22257 23.8812 8.3007 23.8031 8.30293 23.7071C8.34757 21.9839 9.03954 20.37 10.2628 19.1468C11.5284 17.8812 13.2092 17.1848 14.9994 17.1848C16.7895 17.1848 18.4703 17.8812 19.736 19.1468C20.9592 20.37 21.6511 21.9839 21.6958 23.7071C21.698 23.8053 21.7761 23.8812 21.8744 23.8812H23.2136C23.2375 23.8812 23.2611 23.8764 23.283 23.8672C23.305 23.8579 23.3249 23.8444 23.3415 23.8273C23.3582 23.8103 23.3712 23.7901 23.3799 23.7679C23.3886 23.7457 23.3928 23.722 23.3922 23.6982C23.3699 22.6312 23.1489 21.5933 22.7337 20.6133ZM14.9994 15.4883C13.9748 15.4883 13.0105 15.0888 12.2851 14.3633C11.5596 13.6379 11.1601 12.6736 11.1601 11.6491C11.1601 10.6245 11.5596 9.66022 12.2851 8.93477C13.0105 8.20932 13.9748 7.80977 14.9994 7.80977C16.0239 7.80977 16.9882 8.20932 17.7136 8.93477C18.4391 9.66022 18.8386 10.6245 18.8386 11.6491C18.8386 12.6736 18.4391 13.6379 17.7136 14.3633C16.9882 15.0888 16.0239 15.4883 14.9994 15.4883Z" fill="#7A7C7E"/>
</svg>
