<svg width="15" height="16" viewBox="0 0 15 16" fill="none" xmlns="http://www.w3.org/2000/svg">
<path d="M9.60357 8.75627C9.94152 8.8626 10.2653 9.0095 10.5679 9.19377L10.5486 9.18252C10.8792 9.32939 11.1648 9.50127 11.4254 9.70314L11.4161 9.69627C11.4286 9.73439 11.4361 9.77752 11.4361 9.82314L11.4354 9.84314V9.84252C11.4261 10.1106 11.3667 10.3625 11.2661 10.5919L11.2711 10.5788C11.1267 10.8681 10.8861 11.0913 10.5917 11.21L10.5829 11.2131C10.2783 11.3724 9.94151 11.4602 9.59794 11.47H9.59419C8.93841 11.3857 8.30465 11.1774 7.7267 10.8563L7.75357 10.87C7.13969 10.5919 6.58146 10.2046 6.10608 9.72689L6.10545 9.72627C5.58694 9.1864 5.11681 8.60208 4.70046 7.98002L4.67108 7.93377C4.25791 7.39369 4.0182 6.74102 3.98358 6.0619L3.98296 6.05378V5.97628C3.99213 5.68618 4.06025 5.40098 4.18317 5.13806C4.30609 4.87513 4.48124 4.63997 4.69796 4.44691L4.69983 4.44503C4.8337 4.31165 5.01401 4.23527 5.20295 4.23191H5.20358C5.2667 4.23378 5.32733 4.23878 5.38608 4.24753L5.37795 4.24628C5.43233 4.25441 5.49545 4.25941 5.56045 4.26066H5.56233C5.65332 4.25181 5.74461 4.2743 5.82108 4.32441L5.81983 4.32378C5.8867 4.39753 5.93795 4.48691 5.96858 4.58503L5.96983 4.59003C6.02149 4.7192 6.12816 5.00336 6.28983 5.44253C6.3742 5.63878 6.4567 5.88065 6.52295 6.1294L6.5317 6.16878C6.48662 6.3863 6.3692 6.58215 6.19858 6.7244L6.1967 6.72565C5.97378 6.96148 5.86233 7.11148 5.86233 7.17565C5.86471 7.22827 5.8823 7.27907 5.91295 7.3219L5.91233 7.32127C6.15405 7.82099 6.48828 8.27037 6.89732 8.64564L6.90045 8.64877C7.32867 9.03452 7.80873 9.3585 8.32669 9.61127L8.36357 9.62752C8.4269 9.66861 8.50003 9.69213 8.57544 9.69564H8.57669C8.67378 9.69564 8.84836 9.53897 9.10044 9.22564C9.35252 8.91231 9.52002 8.75564 9.60294 8.75564L9.60357 8.75627ZM7.6367 13.8913H7.65045C8.47111 13.8924 9.283 13.7223 10.0342 13.3919L9.99607 13.4069C11.4686 12.7856 12.6167 11.6375 13.2229 10.2044L13.2379 10.165C13.5442 9.46939 13.7223 8.65814 13.7223 7.80565C13.7223 6.95315 13.5442 6.1419 13.2229 5.40753L13.2379 5.44628C12.6167 3.97378 11.4686 2.82566 10.0354 2.21941L9.99607 2.20441C9.30044 1.89816 8.48919 1.72004 7.6367 1.72004C6.7842 1.72004 5.97295 1.89816 5.23858 2.21941L5.27733 2.20441C3.80483 2.82566 2.65671 3.97378 2.05046 5.4069L2.03546 5.44628C1.71321 6.19361 1.54833 6.9993 1.55109 7.81315C1.54907 9.09991 1.96078 10.3532 2.72546 11.3881L2.71359 11.3719L1.94796 13.63L4.29296 12.8838C5.27256 13.5436 6.42749 13.8945 7.60857 13.8913H7.63795H7.6367ZM7.6367 0.500042H7.65732C8.67482 0.500042 9.64231 0.713792 10.5167 1.09942L10.4711 1.08129C12.2367 1.82941 13.6136 3.20628 14.3436 4.9244L14.3617 4.9719C14.7292 5.80753 14.9429 6.7819 14.9429 7.80627C14.9429 8.83064 14.7292 9.80502 14.3436 10.6869L14.3617 10.6406C13.6136 12.4063 12.2367 13.7831 10.5186 14.5131L10.4711 14.5313C9.64169 14.8988 8.67419 15.1125 7.6567 15.1125H7.63545H7.6367H7.60357C6.3167 15.1125 5.10858 14.7744 4.06358 14.1825L4.09921 14.2013L0.0585938 15.5L1.37671 11.5756C0.688662 10.4438 0.3266 9.14394 0.330468 7.8194C0.330468 6.79065 0.544217 5.8119 0.929841 4.92503L0.911716 4.9719C1.65984 3.20628 3.03671 1.82941 4.75483 1.09942L4.80233 1.08129C5.69004 0.694603 6.64843 0.496667 7.6167 0.500042H7.6367Z" fill="black"/>
</svg>
